<svg xmlns="http://www.w3.org/2000/svg" height="40" width="120"><path d="M159 45H-39V-9h198v54z" fill="none"/><path d="M51.3 20.8c0 5.7-4.4 9.9-9.9 9.9s-9.9-4.2-9.9-9.9 4.4-9.9 9.9-9.9 9.9 4.2 9.9 9.9zm21.4 0c0 5.7-4.4 9.9-9.9 9.9s-9.9-4.2-9.9-9.9 4.4-9.9 9.9-9.9c5.4 0 9.8 4.2 9.9 9.9zm20.4-9.3v17.7c0 7.3-4.3 10.3-9.4 10.3-4.8 0-7.7-3.2-8.7-5.8l3.8-1.6c.7 1.6 2.3 3.5 5 3.5 3.2 0 5.3-2 5.3-5.8v-1.4h-.2c-1 1.2-2.8 2.2-5.2 2.2-4.9 0-9.4-4.3-9.4-9.8 0-5.6 4.5-9.9 9.4-9.9 2.4 0 4.2 1 5.2 2.2h.1v-1.6h4.1zm6.8-10.4V30h-4.2V1.1h4.2zM116.3 24l3.4 2.2c-1.1 1.6-3.7 4.4-8.2 4.4-5.6 0-9.8-4.3-9.8-9.9 0-5.9 4.2-9.9 9.3-9.9 5.1 0 7.6 4.1 8.4 6.3l.4 1.1-13.2 5.5c1 2 2.6 3 4.8 3 2.3 0 3.8-1 4.9-2.7zM15.5 18.2V14h14.1c.1.7.2 1.6.2 2.5 0 3.1-.9 7-3.6 9.8-2.7 2.8-6.1 4.3-10.7 4.3C7.1 30.6 0 23.8 0 15.3 0 6.9 7.1 0 15.5 0c4.7 0 8 1.8 10.5 4.2l-3 3c-1.8-1.7-4.2-3-7.5-3-6.2 0-11 5-11 11.1 0 6.2 4.8 11.1 11 11.1 4 0 6.3-1.6 7.7-3.1 1.2-1.2 2-2.9 2.3-5.2l-10 .1zM47 20.8c0-3.5-2.6-6-5.6-6s-5.6 2.4-5.6 6c0 3.5 2.6 6 5.6 6s5.6-2.5 5.6-6zm21.3 0c0-3.5-2.6-6-5.6-6-3 0-5.6 2.4-5.6 6 0 3.5 2.6 6 5.6 6 3-.1 5.6-2.5 5.6-6zm21 0c0-3.5-2.3-6-5.3-6s-5.5 2.5-5.5 6c0 3.4 2.5 5.9 5.5 5.9s5.3-2.5 5.3-5.9zm16.7-.3l8.8-3.7c-.5-1.2-1.9-2.1-3.7-2.1-2.1 0-5.2 2-5.1 5.8z" fill="#606060"/></svg>
